<svg xmlns="http://www.w3.org/2000/svg" width="17.967" height="17.979" viewBox="0 0 17.967 17.979">
  <path id="Path_11998" data-name="Path 11998" d="M40.265,33.537l-3.944.131L33.3,31.937l3.024-1.753,3.944.131h.022a.67.67,0,0,0,.657-.635A.645.645,0,0,0,40.309,29l-3.067-.088L38.687,26.2a.662.662,0,0,0-1.161-.635l-1.862,3.484L32.64,30.8V27.731l2.1-3.79a.662.662,0,1,0-1.161-.635l-1.6,2.892-1.621-2.914a.662.662,0,0,0-1.161.635l2.125,3.812V30.8l-2.651-1.534L26.44,25.54a.654.654,0,0,0-1.117.679l1.709,2.848L23.7,29a.657.657,0,0,0,0,1.315l4.316.088,2.651,1.534-2.651,1.534-4.36.066a.657.657,0,1,0,0,1.315l3.33-.066-1.709,2.848a.645.645,0,0,0,.219.9.618.618,0,0,0,.329.088.66.66,0,0,0,.57-.329l2.235-3.725,2.651-1.534v3.484L29.2,39.869a.654.654,0,0,0,1.117.679l1.665-2.542,1.643,2.607a.625.625,0,0,0,.548.307.552.552,0,0,0,.351-.11.669.669,0,0,0,.219-.9l-2.1-3.352V33.077l3.024,1.753,1.862,3.484a.665.665,0,0,0,.592.351.5.5,0,0,0,.307-.088.653.653,0,0,0,.263-.9l-1.446-2.717,3.089-.11a.645.645,0,0,0,.635-.679A.711.711,0,0,0,40.265,33.537Z" transform="translate(-23 -22.942)" fill="#3d8de8"/>
</svg>
