<svg xmlns="http://www.w3.org/2000/svg" width="12.7" height="17.893" viewBox="0 0 12.7 17.893">
  <path id="Path_12003" data-name="Path 12003" d="M4.9,1.109a.65.65,0,0,0-.534.282,7.419,7.419,0,0,0-1.41,3.917A7.419,7.419,0,0,0,4.37,9.225,7.215,7.215,0,0,1,5.538,12.4,7.222,7.222,0,0,1,4.37,15.568a.643.643,0,1,0,1.047.745A7.463,7.463,0,0,0,6.827,12.4a7.463,7.463,0,0,0-1.41-3.917A7.134,7.134,0,0,1,4.249,5.308,7.134,7.134,0,0,1,5.417,2.136a.632.632,0,0,0,.055-.67A.646.646,0,0,0,4.9,1.109ZM9.1,1.992a.65.65,0,0,0-.534.282,7.419,7.419,0,0,0-1.41,3.917,7.419,7.419,0,0,0,1.41,3.917,7.215,7.215,0,0,1,1.168,3.172,7.222,7.222,0,0,1-1.168,3.172.643.643,0,1,0,1.047.745,7.463,7.463,0,0,0,1.41-3.917,7.463,7.463,0,0,0-1.41-3.917A7.134,7.134,0,0,1,8.444,6.191,7.134,7.134,0,0,1,9.612,3.019a.632.632,0,0,0,.055-.67A.646.646,0,0,0,9.1,1.992Zm4.139,1.034a.65.65,0,0,0-.534.282,7.418,7.418,0,0,0-1.41,3.917,7.418,7.418,0,0,0,1.41,3.917,7.216,7.216,0,0,1,1.168,3.172A7.222,7.222,0,0,1,12.7,17.485a.643.643,0,1,0,1.047.745,9.008,9.008,0,0,0,1.238-2.621,4.811,4.811,0,0,0,.171-1.3,7.463,7.463,0,0,0-1.41-3.917,7.163,7.163,0,0,1-1.168-3.172,7.134,7.134,0,0,1,1.168-3.172.632.632,0,0,0,.055-.67A.646.646,0,0,0,13.238,3.026Z" transform="translate(-2.711 -0.859)" fill="#ff5753" stroke="#ff5753" stroke-width="0.5"/>
</svg>
