<svg xmlns="http://www.w3.org/2000/svg" width="79.58" height="76.719" viewBox="0 0 79.58 76.719">
  <g id="Group_6" data-name="Group 6" transform="translate(-131.427 -138.57)">
    <g id="Group_1" data-name="Group 1" transform="translate(147.427 138.57)">
      <path id="Path_1" data-name="Path 1" d="M251.916,142.759l-4.565,2.262V148.4l-19.412,9.623-13.652-6.934v13.7l-5.769,2.858V138.57H211.4v4.29l16.547,8.573,19.408-9.21,3.481-1.652Z" transform="translate(-203.946 -138.57)" fill="#fff"/>
      <path id="Path_2" data-name="Path 2" d="M190.866,213.721l4.565-2.262V208.08l19.412-9.623,13.652,6.934v-13.7l5.769-2.858V217.91h-2.878v-4.29l-16.547-8.573-19.408,9.21-3.481,1.652Z" transform="translate(-190.866 -175.812)" fill="#fff"/>
    </g>
    <g id="Group_2" data-name="Group 2" transform="translate(131.427 189.319)">
      <path id="Path_3" data-name="Path 3" d="M142.349,334.523l-4.8,6.423-4.8-6.423h-2.9V345.45H132.8v-6.217l4.75,6.063,4.75-6.063v6.217h2.954V334.523Z" transform="translate(-129.847 -334.517)" fill="#fff"/>
      <path id="Path_4" data-name="Path 4" d="M326.113,334.523l-4.8,6.423-4.8-6.423h-2.9V345.45h2.953v-6.217l4.75,6.063,4.75-6.063v6.217h2.954V334.523Z" transform="translate(-266.012 -334.517)" fill="#fff"/>
      <path id="Path_5" data-name="Path 5" d="M209.387,336.911v-2.387H196.954v10.927h12.433v-2.387h-9.529v-1.987h7.805v-2.2h-7.805v-1.969Z" transform="translate(-179.572 -334.517)" fill="#fff"/>
      <path id="Path_6" data-name="Path 6" d="M259.566,340.946h-3.912l1.956-3.524Zm-.4-6.448h-3.11l-6.092,10.927h3.205l1.216-2.191h6.453l1.216,2.191h3.205Z" transform="translate(-218.851 -334.498)" fill="#fff"/>
      <path id="Path_7" data-name="Path 7" d="M387.638,340.946h-3.912l1.956-3.524Zm-.4-6.448h-3.109l-6.092,10.927h3.205l1.216-2.191h6.452l1.216,2.191h3.205Z" transform="translate(-313.749 -334.498)" fill="#fff"/>
    </g>
    <g id="Group_5" data-name="Group 5" transform="translate(172.427 206.21)">
      <g id="Group_4" data-name="Group 4" transform="translate(0 0)">
        <g id="Group_3" data-name="Group 3" transform="translate(-20)">
          <path id="Path_8" data-name="Path 8" d="M247.142,416.451a3.2,3.2,0,1,1,3.11-3.193A3.02,3.02,0,0,1,247.142,416.451Zm0-.889c1.236,0,1.93-.958,1.93-2.3s-.694-2.3-1.93-2.3-1.9.944-1.9,2.3S245.921,415.563,247.142,415.563Z" transform="translate(-234.854 -407.372)" fill="#fff"/>
          <path id="Path_9" data-name="Path 9" d="M273.733,400.35V409.1h-1.152V400.35Z" transform="translate(-255.987 -400.184)" fill="#fff"/>
          <path id="Path_10" data-name="Path 10" d="M284.242,400.35V409.1H283.09V400.35Z" transform="translate(-263.774 -400.184)" fill="#fff"/>
          <path id="Path_11" data-name="Path 11" d="M298.052,414.244a2.694,2.694,0,0,1-2.832,2.207,2.969,2.969,0,0,1-3.124-3.11,3.092,3.092,0,0,1,3.068-3.29,2.8,2.8,0,0,1,2.915,3.027v.458h-4.831a2,2,0,0,0,1.985,2.013,1.741,1.741,0,0,0,1.861-1.416Zm-1.152-1.458a1.739,1.739,0,0,0-1.735-1.86,1.951,1.951,0,0,0-1.888,1.86Z" transform="translate(-270.448 -407.372)" fill="#fff"/>
          <path id="Path_12" data-name="Path 12" d="M321.422,410.051a2.721,2.721,0,0,1,2.86,2.652l-1.014.07a1.777,1.777,0,0,0-1.86-1.791c-1.139,0-1.915.875-1.915,2.277s.777,2.277,1.915,2.277a1.811,1.811,0,0,0,1.86-1.833l1.014.1a2.713,2.713,0,0,1-2.86,2.651,3.2,3.2,0,0,1,0-6.4Z" transform="translate(-289.873 -407.372)" fill="#fff"/>
          <path id="Path_13" data-name="Path 13" d="M344.105,406.724h-.916V406.1l.389-.07c.569-.111.694-.389.833-.972l.181-.846h.652v1.68h1.707v.833h-1.707V410.4c0,.541.222.791.749.791a2.441,2.441,0,0,0,1.139-.361v.778a2.384,2.384,0,0,1-1.555.513c-.861,0-1.472-.4-1.472-1.582Z" transform="translate(-308.306 -403.045)" fill="#fff"/>
          <path id="Path_14" data-name="Path 14" d="M212.808,407.76c-1.777,0-3.054-1.36-3.054-3.512s1.277-3.513,3.054-3.513a2.742,2.742,0,0,1,2.884,2.588l1.158-.089a3.766,3.766,0,0,0-4.042-3.526,4.547,4.547,0,0,0,0,9.079,3.763,3.763,0,0,0,4.037-3.494l-1.157-.089A2.738,2.738,0,0,1,212.808,407.76Z" transform="translate(-208.518 -399.708)" fill="#fff"/>
        </g>
      </g>
    </g>
  </g>
</svg>
